<svg fill="#000000" xmlns="http://www.w3.org/2000/svg" viewBox="0 0 50 50" width="50px" height="50px"><path d="M7.656,20h38.689C44.121,11.379,36.316,5,27,5S9.879,11.379,7.656,20z"/><path d="M7.05,24H46.95c-0.034-0.676-0.099-1.343-0.199-2H7.249C7.15,22.657,7.084,23.324,7.05,24z"/><path d="M7.249,28h39.502c0.099-0.657,0.165-1.324,0.199-2H7.05C7.084,26.676,7.15,27.343,7.249,28z"/><path d="M27,45c9.316,0,17.121-6.379,19.344-15H7.656C9.879,38.621,17.684,45,27,45z"/><path d="M5,25c0-9.502,6.056-17.615,14.51-20.685C9.589,5.985,2,14.612,2,25s7.589,19.015,17.51,20.685 C11.056,42.615,5,34.502,5,25z"/></svg>